<svg width="16" height="16" viewBox="0 0 16 16" fill="none" xmlns="http://www.w3.org/2000/svg">
<path fill-rule="evenodd" clip-rule="evenodd" d="M8.86746 10.1C8.78643 10.019 8.72216 9.92279 8.67831 9.81695C8.63446 9.71109 8.61189 9.59764 8.61189 9.48307C8.61189 9.3685 8.63446 9.25505 8.67831 9.1492C8.72216 9.04335 8.78643 8.94718 8.86746 8.86616C9.09507 8.63857 9.27563 8.36836 9.39882 8.07099C9.52201 7.77361 9.58541 7.45488 9.58541 7.13301C9.58541 6.81113 9.52201 6.4924 9.39882 6.19502C9.27563 5.89765 9.09507 5.62744 8.86746 5.39984L5.92941 2.46278C5.70179 2.23518 5.43158 2.05463 5.13418 1.93146C4.83679 1.80828 4.51805 1.74488 4.19616 1.74488C3.87426 1.74488 3.55552 1.80828 3.25813 1.93146C2.96074 2.05463 2.69052 2.23518 2.46291 2.46278C2.23529 2.69038 2.05474 2.96058 1.93156 3.25796C1.80837 3.55534 1.74497 3.87406 1.74497 4.19594C1.74497 4.51782 1.80837 4.83654 1.93156 5.13392C2.05474 5.43129 2.23529 5.7015 2.46291 5.9291L3.37108 6.83639C3.45209 6.9174 3.51636 7.01358 3.56021 7.11943C3.60405 7.22528 3.62662 7.33873 3.62662 7.4533C3.62662 7.56787 3.60405 7.68132 3.56021 7.78717C3.51636 7.89302 3.45209 7.98919 3.37108 8.07021C3.20745 8.23382 2.98553 8.32574 2.75414 8.32574C2.63956 8.32574 2.52611 8.30317 2.42025 8.25933C2.3144 8.21548 2.21821 8.15122 2.13719 8.07021L1.22903 7.16292C0.442094 6.37602 0 5.30877 0 4.19594C0 3.08311 0.442094 2.01585 1.22903 1.22896C2.01596 0.442071 3.08327 0 4.19616 0C5.30905 0 6.37636 0.442071 7.16329 1.22896L10.1013 4.16603C10.491 4.55565 10.8001 5.0182 11.011 5.52728C11.2219 6.03635 11.3304 6.58198 11.3304 7.13301C11.3304 7.68403 11.2219 8.22966 11.011 8.73873C10.8001 9.24781 10.491 9.71036 10.1013 10.1C9.76067 10.4406 9.20812 10.4406 8.86746 10.1ZM7.16412 5.9291C7.24514 6.01011 7.30941 6.10629 7.35326 6.21214C7.39711 6.31799 7.41968 6.43144 7.41968 6.54601C7.41968 6.66058 7.39711 6.77403 7.35326 6.87988C7.30941 6.98573 7.24514 7.08191 7.16412 7.16292C6.9365 7.39051 6.75594 7.66072 6.63276 7.95809C6.50957 8.25547 6.44617 8.5742 6.44617 8.89608C6.44617 9.21795 6.50957 9.53668 6.63276 9.83406C6.75594 10.1314 6.9365 10.4016 7.16412 10.6292L10.0723 13.5372C10.2987 13.7702 10.5691 13.9558 10.8679 14.0833C11.1667 14.2108 11.4878 14.2776 11.8127 14.2799C12.1375 14.2822 12.4596 14.2199 12.7601 14.0966C13.0607 13.9734 13.3337 13.7916 13.5634 13.5619C13.7931 13.3321 13.9748 13.0591 14.098 12.7585C14.2212 12.4579 14.2834 12.1359 14.2811 11.8111C14.2787 11.4862 14.2118 11.1651 14.0842 10.8664C13.9566 10.5676 13.7709 10.2972 13.5379 10.0709L12.6863 9.21928C12.5226 9.05566 12.4307 8.83375 12.4307 8.60237C12.4307 8.37098 12.5226 8.14907 12.6863 7.98546C12.8499 7.82185 13.0718 7.72993 13.3032 7.72993C13.5346 7.72993 13.7565 7.82185 13.9201 7.98546L14.771 8.83708C15.5579 9.62398 16 10.6912 16 11.8041C16 12.9169 15.5579 13.9841 14.771 14.771C13.984 15.5579 12.9167 16 11.8038 16C10.691 16 9.62364 15.5579 8.83671 14.771L5.92858 11.8631C5.53891 11.4734 5.22981 11.0109 5.01892 10.5018C4.80804 9.99273 4.6995 9.4471 4.6995 8.89608C4.6995 8.34505 4.80804 7.79942 5.01892 7.29035C5.22981 6.78127 5.53891 6.31872 5.92858 5.9291C6.00959 5.84808 6.10577 5.78381 6.21163 5.73996C6.31748 5.69612 6.43094 5.67355 6.54552 5.67355C6.66009 5.67355 6.77355 5.69612 6.87941 5.73996C6.98526 5.78381 7.08144 5.84808 7.16246 5.9291H7.16412Z" fill="white"/>
</svg>
